<svg width="34" height="16" viewBox="0 0 34 16" fill="none" xmlns="http://www.w3.org/2000/svg">
<path d="M8.6895 14.1218L10.9802 11.1093C11.2998 10.6905 11.939 10.6905 12.2528 11.1093L14.5434 14.1218C14.869 14.5521 14.5612 15.1686 14.0107 15.1686H9.22221C8.67175 15.1686 8.35801 14.5521 8.6895 14.1218Z" fill="#377E62"/>
<path d="M33.3103 14.1637L23.3408 1.06664C23.026 0.654138 22.3963 0.654138 22.0873 1.06664L18.7291 5.47816C18.5309 5.7417 18.5309 6.09693 18.7291 6.36048L19.8427 7.82143C20.14 8.21675 20.7405 8.21675 21.0437 7.82143L22.2097 6.29172C22.4663 5.95367 22.9793 5.95367 23.23 6.29172L29.5091 14.5361C29.8239 14.9486 30.3136 15.1893 30.8383 15.1893H32.7915C33.3336 15.1893 33.6427 14.582 33.3162 14.158L33.3103 14.1637Z" fill="#52AE77"/>
<path d="M21.9815 14.1584L17.7602 8.60896L15.7165 5.92301L12.025 1.06652C11.7105 0.654179 11.0817 0.654179 10.7731 1.06652L0.816551 14.1584C0.490491 14.5822 0.799086 15.1893 1.34058 15.1893H3.29116C3.81518 15.1893 4.30427 14.9487 4.61869 14.5364L10.8896 6.29525C11.1458 5.96306 11.6581 5.96306 11.9085 6.29525L13.6727 8.60896L15.7165 11.2949L18.1794 14.5364C18.4938 14.9487 18.9829 15.1893 19.5069 15.1893H21.4575C21.999 15.1893 22.3018 14.5822 21.9815 14.1584Z" fill="#52AE77"/>
</svg>
