<svg width="40" height="40" viewBox="0 0 40 40" fill="none" xmlns="http://www.w3.org/2000/svg">
<path d="M39.5225 37.4631C39.8691 37.9237 39.9253 38.5407 39.6677 39.0564C39.41 39.572 38.8829 39.8976 38.3065 39.897L1.82649 39.897C1.25075 39.897 0.724432 39.5718 0.466956 39.0568C0.20948 38.5419 0.265046 37.9256 0.610486 37.465C1.95642 35.6605 3.75123 34.2398 5.81649 33.3439C3.49935 31.2291 2.71974 27.9079 3.85385 24.983C4.98796 22.058 7.80271 20.1305 10.9398 20.1305C14.077 20.1305 16.8917 22.058 18.0258 24.983C19.1599 27.9079 18.3803 31.2291 16.0632 33.3439C17.5532 33.988 18.9072 34.9094 20.0532 36.059C21.1991 34.9094 22.5532 33.988 24.0432 33.3439C21.7261 31.2291 20.9464 27.9079 22.0805 24.983C23.2147 22.058 26.0294 20.1305 29.1665 20.1305C32.3037 20.1305 35.1184 22.058 36.2525 24.983C37.3866 27.9079 36.607 31.2291 34.2899 33.3439C36.3648 34.235 38.1692 35.6555 39.5225 37.4631ZM0.914486 19.833C1.58606 20.3367 2.5388 20.2006 3.04249 19.529C4.90837 17.0412 7.83668 15.577 10.9465 15.577C14.0563 15.577 16.9846 17.0412 18.8505 19.529C19.1375 19.9118 19.5881 20.137 20.0665 20.137C20.5449 20.137 20.9954 19.9118 21.2825 19.529C23.1484 17.0412 26.0767 15.577 29.1865 15.577C32.2963 15.577 35.2246 17.0412 37.0905 19.529C37.5947 20.2006 38.5479 20.3363 39.2194 19.8321C39.891 19.3279 40.0267 18.3747 39.5225 17.7031C38.1765 15.8992 36.3817 14.479 34.3165 13.5839C36.6336 11.4691 37.4132 8.14791 36.2791 5.22296C35.145 2.29801 32.3303 0.370453 29.1931 0.370453C26.056 0.370453 23.2413 2.29801 22.1071 5.22296C20.973 8.14791 21.7527 11.4691 24.0698 13.5839C22.5798 14.228 21.2257 15.1494 20.0798 16.299C18.9338 15.1494 17.5798 14.228 16.0898 13.5839C18.4069 11.4691 19.1865 8.14791 18.0524 5.22296C16.9183 2.29801 14.1036 0.370453 10.9664 0.370453C7.82931 0.370453 5.01455 2.29801 3.88045 5.22296C2.74634 8.14791 3.52595 11.4691 5.84309 13.5839C3.76814 14.4758 1.96377 15.8969 0.610486 17.705C0.106802 18.3766 0.242908 19.3294 0.914486 19.833Z" fill="#52AE77"/>
</svg>
